# xmcd
#
# Track frame offsets:
#	150
#	8313
#	20593
#	36604
#	46530
#	64046
#	74559
#	89941
#	102434
#	117816
#
# Disc length: 1703 seconds
#
# Revision: 1
# Processed by: cddbd v1.5.1PL0 Copyright (c) Steve Scherf et al.
# Submitted via: audiograbber 1.82.02
#
DISCID=8306a50a
DTITLE=Pierce Arrow - Branson Heat
DYEAR=2003
DGENRE=Country
TTITLE0=National Anthem
TTITLE1=Still The One
TTITLE2=Elizabeth
TTITLE3=Take It Easy
TTITLE4=American Trilogy
TTITLE5=Great Great Morning
TTITLE6=Seven Bridges Road
TTITLE7=This Old House
TTITLE8=God Bless The USA
TTITLE9=Goodbye World
EXTD=
EXTT0=
EXTT1=
EXTT2=
EXTT3=
EXTT4=
EXTT5=
EXTT6=
EXTT7=
EXTT8=
EXTT9=
PLAYORDER=
